<?xml version="1.0" standalone="no"?>
<!DOCTYPE svg PUBLIC "-//W3C//DTD SVG 20010904//EN"
 "http://www.w3.org/TR/2001/REC-SVG-20010904/DTD/svg10.dtd">
<svg version="1.0" xmlns="http://www.w3.org/2000/svg"
 width="1392.000000pt" height="1392.000000pt" viewBox="0 0 1392.000000 1392.000000"
 preserveAspectRatio="xMidYMid meet">
<metadata>
Created by potrace 1.14, written by Peter Selinger 2001-2017
</metadata>
<g transform="translate(0.000000,1392.000000) scale(0.100000,-0.100000)"
fill="#000000" stroke="none">
<path d="M455 11405 c-166 -36 -314 -153 -394 -311 -17 -34 -31 -68 -31 -76 0
-8 -3 -18 -7 -22 -4 -3 -9 -14 -12 -24 -3 -9 -6 -1808 -8 -3997 -2 -3787 -1
-3983 16 -4045 22 -81 64 -169 97 -206 6 -6 21 -25 35 -40 68 -81 171 -143
300 -182 38 -11 12926 -14 12984 -2 27 5 60 11 73 14 40 9 146 67 198 109 64
52 116 119 154 196 64 129 60 -201 60 4136 0 4338 5 4005 -60 4137 -39 80
-134 198 -159 198 -4 0 -16 9 -25 19 -18 20 -133 80 -165 86 -10 2 -36 8 -57
14 -28 8 -1920 11 -6489 10 -5289 0 -6461 -3 -6510 -14z m1792 -125 c7 -36 15
-81 18 -100 7 -40 6 -40 36 -186 5 -28 12 -64 15 -80 3 -16 14 -74 25 -129 12
-55 23 -113 25 -130 3 -16 10 -47 15 -68 6 -21 12 -50 14 -65 2 -15 11 -58 20
-97 9 -38 18 -81 21 -95 3 -14 12 -52 21 -85 18 -70 22 -91 28 -125 3 -14 9
-42 15 -62 5 -21 14 -55 20 -75 5 -21 21 -81 35 -133 14 -52 28 -105 30 -116
9 -40 86 -267 101 -296 8 -15 14 -30 14 -33 -1 -3 13 -34 31 -68 32 -64 50
-78 114 -91 83 -17 152 -25 270 -32 50 -3 115 -7 145 -9 113 -8 607 -26 835
-30 1433 -27 3708 -23 5430 10 409 8 626 13 703 17 28 2 52 -1 52 -5 0 -5 5
-5 11 -1 7 4 71 8 143 10 164 3 440 13 526 19 103 7 204 16 221 18 66 10 153
185 240 482 32 110 82 292 94 345 2 8 17 67 33 130 26 100 92 387 106 460 3
14 7 35 10 48 11 43 14 58 35 157 26 123 33 154 36 180 2 11 4 21 4 23 1 1 1
4 2 7 0 2 7 31 14 62 7 32 16 76 20 98 3 22 9 56 13 75 l8 34 784 1 c704 0
848 -3 900 -21 8 -3 15 -5 15 -4 0 1 18 -6 40 -16 149 -62 268 -210 301 -376
9 -45 11 -7849 2 -7919 -18 -137 -82 -247 -200 -344 -21 -17 -114 -68 -128
-70 -3 -1 -30 -7 -60 -15 -47 -12 -1034 -14 -6495 -13 -4955 0 -6450 3 -6485
12 -193 51 -349 207 -377 375 -3 16 -8 39 -12 50 -9 26 -6 7879 3 7924 29 143
109 260 230 336 131 83 106 81 1072 81 l849 -1 12 -64z m9476 61 c5 -1 6 -5 3
-9 -3 -5 -8 -24 -11 -43 -3 -19 -8 -41 -11 -50 -2 -9 -11 -52 -19 -95 -8 -43
-20 -101 -26 -129 -6 -27 -13 -63 -15 -78 -2 -15 -10 -54 -18 -85 -8 -31 -17
-73 -20 -93 -3 -20 -8 -42 -10 -50 -3 -8 -8 -25 -10 -39 -3 -14 -7 -36 -11
-50 -3 -14 -7 -34 -10 -45 -2 -11 -7 -31 -10 -45 -3 -14 -10 -47 -15 -73 -5
-27 -12 -52 -14 -56 -3 -4 -8 -21 -10 -37 -10 -50 -13 -66 -41 -174 -15 -58
-29 -113 -31 -122 -2 -10 -6 -27 -9 -38 -3 -11 -7 -28 -9 -37 -14 -58 -100
-342 -126 -418 -38 -109 -94 -227 -118 -248 -9 -8 -33 -18 -52 -21 -43 -6
-230 -17 -395 -21 -66 -2 -120 -4 -120 -5 0 -1 -72 -3 -160 -5 -88 -2 -252 -6
-365 -9 -201 -6 -633 -14 -1100 -21 -1793 -28 -4312 -24 -5275 10 -528 18
-729 31 -851 57 -50 10 -50 10 -87 87 -59 122 -166 474 -222 731 -2 8 -11 44
-20 80 -8 36 -18 74 -20 85 -3 11 -9 40 -15 65 -5 25 -12 56 -15 70 -8 43 -56
264 -61 285 -3 11 -7 34 -9 50 -3 17 -7 41 -10 55 -3 14 -12 61 -21 105 -8 44
-24 124 -35 178 -11 53 -21 109 -23 125 -2 15 -8 47 -13 72 l-9 45 4705 -1
c2588 -1 4710 -2 4714 -3z"/>
<path d="M13345 11231 c-4 -3 -10 -6 -13 -7 -24 -2 -81 -36 -105 -63 -74 -84
-92 -189 -49 -281 91 -196 365 -195 460 1 30 64 25 169 -11 226 -54 85 -119
124 -214 128 -34 2 -65 0 -68 -4z m150 -82 c22 -11 53 -38 69 -61 25 -35 30
-51 29 -103 -2 -239 -340 -255 -376 -17 -3 17 -2 32 1 32 4 0 7 13 8 30 1 36
45 95 87 117 69 35 114 36 182 2z"/>
<path d="M13380 11080 l0 -50 -49 0 c-44 0 -49 -2 -53 -25 -3 -14 0 -26 6 -27
11 -1 57 -5 86 -7 13 -1 15 -12 12 -59 l-3 -59 28 2 c25 1 28 5 29 41 1 21 2
47 3 57 1 14 10 17 51 17 47 0 50 2 50 25 0 14 -3 25 -7 26 -5 1 -24 2 -43 4
-19 2 -39 3 -43 4 -4 1 -6 21 -4 45 5 47 -3 56 -44 56 -16 0 -19 -7 -19 -50z"/>
<path d="M470 11200 c-214 -29 -301 -275 -153 -432 69 -73 201 -92 293 -42 45
24 113 91 116 113 0 3 6 26 13 51 46 161 -102 332 -269 310z m128 -93 c71 -46
104 -143 74 -222 -20 -54 -48 -84 -100 -107 -70 -32 -151 -18 -211 36 -67 61
-71 199 -7 261 23 22 72 53 91 57 43 11 114 -1 153 -25z"/>
<path d="M488 11093 c-12 -3 -18 -17 -20 -51 -3 -47 -3 -47 -39 -48 -54 -2
-67 -9 -62 -36 4 -21 9 -23 54 -19 l51 3 -2 -48 c-3 -71 -2 -71 25 -76 18 -4
25 -1 26 11 2 18 6 68 8 92 1 11 11 15 39 14 51 -2 60 2 60 31 0 22 -4 24 -50
24 -48 0 -49 1 -48 28 5 69 -3 83 -42 75z"/>
<path d="M1439 11046 c-2 -2 -17 -6 -34 -9 -98 -16 -225 -93 -301 -181 -43
-50 -99 -154 -108 -197 -2 -13 -8 -42 -13 -64 -22 -100 7 -270 59 -347 10 -14
18 -31 18 -36 0 -18 146 -162 163 -162 10 0 17 -4 17 -9 0 -5 37 -24 83 -42
76 -30 90 -33 197 -32 101 0 124 3 185 27 140 54 241 146 304 278 63 132 72
267 27 401 -33 99 -64 147 -142 224 -102 100 -206 144 -355 149 -53 2 -98 2
-100 0z m186 -89 c76 -18 180 -81 240 -145 32 -33 79 -115 94 -163 37 -117 27
-241 -29 -357 -30 -62 -122 -155 -188 -190 -97 -52 -220 -70 -327 -47 -100 21
-224 109 -284 203 -144 226 -59 540 180 659 84 42 227 60 314 40z"/>
<path d="M1497 10589 c-9 -5 -24 -23 -32 -39 -14 -27 -14 -33 -1 -58 20 -39
36 -49 73 -47 31 1 79 32 68 43 -3 3 -1 10 4 16 14 17 -18 76 -46 87 -30 11
-44 11 -66 -2z m61 -64 c4 -20 -15 -36 -35 -28 -13 5 -18 35 -7 45 11 12 39 1
42 -17z"/>
<path d="M12337 11020 c-223 -79 -368 -277 -368 -502 -1 -65 2 -93 14 -148 19
-89 88 -201 165 -270 80 -71 182 -117 296 -134 21 -4 42 -9 46 -11 5 -3 11 -1
14 3 3 5 21 8 41 7 103 -6 249 59 345 155 159 158 206 380 124 587 -49 125
-141 224 -266 288 -38 19 -68 32 -68 30 0 -3 -12 1 -27 7 -16 6 -75 12 -133
14 -93 2 -114 -1 -183 -26z m271 -63 c50 -13 68 -19 102 -35 19 -9 37 -20 38
-24 2 -5 9 -8 16 -8 20 0 115 -101 145 -154 46 -81 61 -145 57 -249 -5 -138
-49 -232 -149 -324 -112 -103 -284 -143 -431 -101 -22 6 -43 12 -46 13 -11 2
-77 40 -104 59 -61 43 -126 131 -161 216 -25 61 -30 211 -9 280 60 202 244
340 445 334 41 -1 84 -4 97 -7z"/>
<path d="M12492 10590 c-13 -6 -29 -24 -36 -42 -12 -28 -12 -37 0 -60 32 -63
112 -59 139 6 11 26 11 35 -1 59 -8 15 -26 32 -40 37 -30 12 -32 12 -62 0z
m56 -67 c3 -21 -22 -38 -39 -27 -10 6 -12 37 -3 46 12 13 39 0 42 -19z"/>
<path d="M982 8816 c-49 -17 -97 -60 -119 -106 -19 -41 -19 -83 -18 -2688 0
-2437 2 -2649 17 -2677 23 -42 66 -81 110 -99 34 -14 634 -16 6020 -16 5798 0
5984 1 6024 19 49 22 99 81 111 130 5 20 8 1176 8 2666 -1 2536 -2 2631 -19
2665 -25 46 -56 77 -103 100 -37 19 -121 20 -6018 18 -4408 0 -5989 -4 -6013
-12z m12005 -84 c12 -7 31 -26 43 -42 l22 -31 0 -2630 c0 -2493 -1 -2631 -18
-2657 -17 -27 -37 -43 -64 -50 -8 -3 -2699 -6 -5980 -7 -5363 -2 -5968 -1
-5999 13 -72 33 -66 -206 -66 2707 1 2565 1 2621 20 2652 10 18 33 38 51 45
46 19 11958 18 11991 0z"/>
<path d="M3184 7633 c-188 -43 -332 -199 -359 -389 -3 -27 -6 -411 -6 -854 0
-875 0 -863 56 -968 40 -72 66 -105 115 -144 54 -43 126 -77 197 -94 68 -16
7595 -18 7683 -2 126 23 256 118 317 234 62 116 60 88 57 1009 -2 462 -4 848
-6 858 -1 9 -6 17 -11 17 -4 0 -6 4 -3 9 3 4 -3 27 -14 49 -11 23 -20 46 -20
52 0 5 -4 10 -10 10 -5 0 -10 5 -10 11 0 6 -6 16 -12 23 -7 8 -22 24 -34 37
-59 67 -143 119 -231 141 -74 18 -7628 19 -7709 1z m2610 -307 c107 -66 296
-255 296 -295 0 -6 4 -11 8 -11 10 0 92 -164 92 -184 0 -8 4 -17 9 -20 5 -3
11 -20 14 -38 3 -18 12 -67 21 -108 16 -75 17 -278 1 -345 -4 -16 -8 -37 -10
-45 -2 -8 -4 -16 -4 -17 -1 -2 -2 -6 -2 -10 -4 -27 -56 -157 -82 -203 -71
-131 -189 -266 -289 -334 l-50 -33 -128 1 c-141 2 -164 10 -200 69 -19 31 -20
56 -20 774 0 501 3 751 11 770 24 63 65 82 169 80 83 -2 87 -3 164 -51z m2256
37 c-65 -46 -133 -116 -205 -211 -53 -70 -142 -232 -128 -232 4 0 3 -4 -3 -8
-13 -8 -60 -174 -71 -247 -16 -111 -7 -318 18 -420 28 -109 110 -301 137 -318
6 -4 12 -13 12 -20 0 -16 99 -139 146 -183 21 -19 34 -35 28 -35 -35 -6 -1956
-3 -1959 2 -3 3 12 21 33 40 84 75 204 260 248 381 30 80 52 172 61 248 9 76
9 235 -1 295 -4 28 -9 61 -11 75 -12 78 -70 226 -128 325 -66 114 -234 305
-268 305 -5 0 -9 5 -9 10 0 7 361 10 1062 10 1010 0 1061 -1 1038 -17z m537
-2 c65 -40 63 -6 60 -843 l-2 -756 -25 -27 c-43 -46 -56 -49 -238 -50 l-174
-2 -55 40 c-69 50 -146 125 -199 197 -39 53 -88 130 -89 140 -1 3 -8 19 -17
35 -17 34 -57 142 -64 177 -2 13 -7 37 -10 53 -14 69 -19 237 -9 300 25 159
75 292 153 408 92 136 175 217 312 301 l74 46 126 0 c106 0 130 -3 157 -19z"/>
<path d="M1250 4728 c-2 -531 1 -1332 4 -1335 3 -3 8280 -5 11217 -3 318 0
327 1 332 20 3 11 1 20 -3 20 -5 0 -5 14 0 30 5 17 5 30 0 30 -5 0 -5 13 0 30
5 17 6 30 2 30 -8 0 -8 62 0 76 3 5 2 18 -2 29 -4 11 -4 32 1 48 4 15 4 27 -1
27 -5 0 -5 13 0 30 5 17 5 30 0 30 -5 0 -5 13 0 30 5 17 5 30 0 30 -5 0 -5 13
0 30 5 17 5 30 0 30 -5 0 -5 13 0 30 5 17 5 30 0 30 -5 0 -5 13 0 30 5 17 5
30 0 30 -5 0 -5 13 0 30 5 17 5 30 0 30 -5 0 -5 13 0 30 5 17 5 30 0 30 -5 0
-5 13 0 30 5 17 5 30 0 30 -5 0 -5 13 0 30 5 17 5 30 0 30 -5 0 -5 13 0 30 5
17 5 30 0 30 -5 0 -5 13 0 30 5 17 5 30 0 30 -5 0 -5 13 0 30 5 17 5 30 0 30
-5 0 -5 13 0 30 5 17 5 30 0 30 -5 0 -5 13 0 30 5 17 5 30 0 30 -5 0 -5 13 0
30 5 17 5 30 0 30 -5 0 -5 13 0 30 5 17 5 30 0 30 -5 0 -5 13 0 30 5 17 6 30
2 30 -4 0 -6 23 -5 50 l2 50 -5774 0 -5775 0 0 -122z m11463 28 c2 -6 3 -297
3 -646 l-1 -635 -5690 0 -5690 0 -1 640 c-1 378 3 642 8 646 18 12 11367 7
11371 -5z"/>
<path d="M3558 4252 c-218 -1 -378 -6 -378 -11 0 -13 9248 -13 9255 0 4 5 -15
9 -42 9 -781 2 -8572 4 -8835 2z"/>
<path d="M3190 3812 c-5 -2 -10 -8 -10 -13 0 -13 9247 -12 9255 1 3 6 -2 10
-12 11 -89 2 -9225 3 -9233 1z"/>
<path d="M470 3200 c-134 -36 -220 -183 -183 -310 34 -116 121 -184 236 -184
92 -1 139 17 188 71 122 130 82 334 -79 405 -49 22 -119 29 -162 18z m110 -66
c0 4 18 -3 40 -15 49 -28 87 -81 96 -134 3 -22 6 -42 7 -45 1 -3 -5 -23 -12
-44 -35 -102 -138 -154 -238 -120 -59 20 -86 44 -113 102 -54 114 22 246 149
262 25 3 52 2 59 -3 6 -5 12 -6 12 -3z"/>
<path d="M499 3083 c-1 -10 0 -30 1 -46 2 -31 -25 -46 -75 -40 -27 3 -31 0
-31 -22 0 -24 24 -40 52 -34 5 1 19 1 31 0 21 -1 23 -5 20 -56 -4 -56 3 -66
39 -61 15 2 18 12 19 57 l0 54 52 3 c49 3 53 5 51 28 -2 18 -9 24 -28 26 -14
0 -29 2 -35 3 -5 2 -16 3 -23 4 -9 1 -13 13 -11 41 4 44 -2 53 -36 57 -18 3
-25 -1 -26 -14z"/>
<path d="M13255 3195 c-140 -41 -216 -186 -170 -324 24 -73 83 -130 165 -159
36 -13 146 -5 182 12 42 20 108 83 108 103 0 7 4 13 9 13 10 0 24 63 26 120 3
72 -47 161 -114 206 -59 38 -137 50 -206 29z m177 -87 c44 -31 78 -97 78 -153
0 -136 -132 -226 -260 -177 -71 27 -128 128 -115 203 24 137 185 205 297 127z"/>
<path d="M13296 3091 c-2 -3 -2 -23 0 -43 4 -44 -6 -52 -60 -52 -36 -1 -40 -4
-41 -28 -2 -25 0 -26 51 -24 l54 1 -3 -60 c-2 -55 0 -61 17 -63 32 -2 42 14
40 68 l-1 51 43 -2 c24 -2 47 0 51 4 13 13 13 47 0 48 -6 0 -25 2 -42 2 -43 3
-56 14 -46 40 13 36 0 62 -32 63 -15 1 -29 -2 -31 -5z"/>
<path d="M3717 11244 c-1 -1 -15 -5 -32 -7 -63 -12 -78 -17 -120 -41 -95 -56
-163 -170 -169 -284 -8 -145 90 -289 229 -337 188 -64 384 40 444 236 18 58 6
179 -24 238 -40 80 -109 144 -185 170 -33 12 -137 30 -143 25z m133 -97 c64
-30 106 -72 136 -136 23 -47 26 -64 22 -125 -6 -87 -31 -139 -92 -193 -50 -44
-109 -65 -183 -65 -54 0 -64 2 -113 24 -109 49 -178 190 -149 303 6 22 11 46
11 53 1 6 5 12 10 12 4 0 8 6 8 13 1 38 111 121 176 133 16 3 30 7 31 8 10 9
105 -9 143 -27z"/>
<path d="M10400 11235 c-25 -6 -58 -17 -74 -23 -73 -31 -152 -119 -182 -204
-15 -42 -20 -140 -10 -187 9 -39 54 -123 85 -156 62 -67 164 -111 251 -110 47
1 150 26 150 37 0 4 6 8 13 8 23 0 114 92 141 143 107 199 -19 453 -245 492
-64 12 -79 12 -129 0z m184 -89 c66 -31 98 -63 131 -130 58 -119 23 -257 -85
-338 -59 -44 -143 -60 -230 -45 -27 5 -104 49 -123 70 -70 80 -92 158 -74 262
6 37 46 102 82 133 92 81 194 98 299 48z"/>
<path d="M8905 10989 c-185 -33 -307 -214 -272 -403 18 -102 90 -196 186 -243
49 -24 68 -28 146 -28 108 0 174 26 244 95 67 67 96 137 95 235 0 122 -20 173
-98 250 -78 78 -191 114 -301 94z m175 -88 c97 -43 167 -154 162 -256 -2 -35
-23 -118 -31 -125 -4 -3 -14 -17 -24 -33 -62 -97 -216 -137 -329 -85 -104 48
-161 136 -161 248 -1 200 201 332 383 251z"/>
<path d="M4991 10959 c-214 -73 -301 -322 -180 -511 119 -185 389 -209 537
-48 78 85 109 203 83 315 -45 190 -255 306 -440 244z m219 -76 c95 -42 162
-145 162 -248 0 -134 -104 -255 -235 -272 -59 -8 -56 -8 -117 10 -159 47 -239
225 -168 378 60 132 224 192 358 132z"/>
</g>
</svg>
