<?xml version="1.0" standalone="no"?>
<!DOCTYPE svg PUBLIC "-//W3C//DTD SVG 20010904//EN"
 "http://www.w3.org/TR/2001/REC-SVG-20010904/DTD/svg10.dtd">
<svg version="1.0" xmlns="http://www.w3.org/2000/svg"
 width="700.000000pt" height="700.000000pt" viewBox="0 0 700.000000 700.000000"
 preserveAspectRatio="xMidYMid meet">
<metadata>
Created by potrace 1.14, written by Peter Selinger 2001-2017
</metadata>
<g transform="translate(0.000000,700.000000) scale(0.100000,-0.100000)"
fill="#000000" stroke="none">
<path d="M250 5827 c-108 -15 -200 -92 -235 -196 -14 -42 -15 -261 -13 -2146
l3 -2100 24 -50 c32 -65 81 -111 150 -143 l56 -26 3266 0 3267 0 65 32 c74 37
119 86 148 162 18 48 19 115 19 2139 0 1853 -2 2094 -15 2132 -34 94 -105 164
-195 190 -36 10 -700 13 -3266 13 -1771 1 -3245 -2 -3274 -7z"/>
</g>
</svg>
